<svg xmlns="http://www.w3.org/2000/svg" xmlns:xlink="http://www.w3.org/1999/xlink" version="1.1" id="Calque_2" x="0px" y="0px" width="60px" height="60px" viewBox="0 0 100 100" enable-background="new 0 0 100 100" xml:space="preserve">
<path fill="#8F8D88" fill-opacity=".8" d="M29.146,40.448c-5.07,0-9.195-4.125-9.195-9.195c0-5.07,4.125-9.196,9.195-9.196  c5.071,0,9.196,4.125,9.196,9.196C38.342,36.323,34.217,40.448,29.146,40.448z M29.146,25.896c-2.954,0-5.356,2.403-5.356,5.357  c0,2.955,2.403,5.357,5.356,5.357c2.954,0,5.357-2.402,5.357-5.357C34.503,28.299,32.1,25.896,29.146,25.896z"/>
<path fill="#8F8D88" fill-opacity=".8" d="M71.572,40.448c-5.069,0-9.194-4.125-9.194-9.195c0-5.07,4.125-9.196,9.194-9.196  c5.07,0,9.195,4.125,9.195,9.196C80.77,36.323,76.645,40.448,71.572,40.448z M71.572,25.896c-2.952,0-5.355,2.403-5.355,5.357  c0,2.955,2.403,5.357,5.355,5.357c2.955,0,5.357-2.402,5.357-5.357C76.93,28.299,74.527,25.896,71.572,25.896z"/>
<path fill="#8F8D88" fill-opacity=".8" d="M56.74,24.407H43.979c-1.06,0-1.92,0.86-1.92,1.919v9.179c0,1.062,0.86,1.92,1.92,1.92H56.74  c1.06,0,1.918-0.858,1.918-1.92v-9.179C58.658,25.267,57.8,24.407,56.74,24.407z M54.82,33.586h-3.694  c0.079-0.773,0.124-1.553,0.124-2.334c0-1.008-0.074-2.012-0.207-3.006h3.777V33.586z"/>
<path fill="#8F8D88" fill-opacity=".8" d="M82.38,18.779H18.34c-1.061,0-1.919-0.859-1.919-1.919V9.858c0-1.06,0.859-1.919,1.919-1.919h64.04  c1.062,0,1.92,0.859,1.92,1.919v7.002C84.3,17.92,83.439,18.779,82.38,18.779z M20.26,14.94h60.201v-3.163H20.26V14.94z"/>
<path fill="#8F8D88" fill-opacity=".8" d="M92.52,74.186c-0.672-2.619-2.258-4.611-4.441-5.748c0.254-2.252,0.447-4.502,0.468-6.557  c2.062-0.335,3.644-2.122,3.644-4.275V5.349c0-2.392-1.946-4.338-4.338-4.338h-74.98c-2.392,0-4.337,1.946-4.337,4.338v52.254  c0,2.297,1.796,4.178,4.057,4.322c-1.279,8.063-0.448,15.262,2.453,20.941c3.61,8.167,11.206,13.712,21.393,15.619  c2.607,0.488,5.338,0.729,8.102,0.729c6.35,0,12.875-1.262,18.488-3.663c10.076-4.01,17.193-9.971,19.037-15.949  c0.785-2.541,0.524-4.965-0.73-6.826c-0.457-0.68-0.998-1.316-1.617-1.911c1.26-0.093,2.42-0.126,3.449-0.089  c0.035,0,0.066,0.002,0.102,0c0.383-0.008,0.746,0.009,1.084,0.045c-0.08,0.613-0.158,1.22-0.238,1.813  c-1.012,7.675-1.405,11.425,0.68,12.837c0.521,0.351,1.629,0.807,3.219-0.076C91.779,83.415,93.68,78.704,92.52,74.186z   M12.371,57.604V5.349c0-0.271,0.229-0.499,0.499-0.499H87.85c0.271,0,0.498,0.229,0.498,0.499v52.254  c0,0.271-0.228,0.498-0.498,0.498h-7.74l-2.726-10.257c-0.224-0.842-0.985-1.428-1.854-1.428H25.191  c-0.87,0-1.632,0.586-1.854,1.428l-2.726,10.257h-7.742C12.599,58.104,12.371,57.875,12.371,57.604z M76.137,58.104H24.583  l2.084-7.847h47.384L76.137,58.104z M84.754,67.438c-0.488-0.057-0.996-0.082-1.513-0.071c-2.242-0.078-4.978,0.146-7.964,0.55  c-2.178-1.008-4.77-1.749-7.725-2.198c-10.855-1.651-25.002,0.933-30.94,5.644c-0.967,0.676-3.361,2.386-2.487,4.472  c0.632,1.508,2.274,2.937,13.809,0.774c3.274-0.537,7.17-1.354,11.295-2.221c5.117-1.074,10.646-2.236,15.487-2.947  c1.521,0.817,2.859,1.875,3.784,3.246c0.855,1.268,0.637,2.828,0.3,3.914c-1.192,3.863-6.301,9.516-17.06,13.793  c-0.014,0.004-0.027,0.01-0.041,0.016c-13.667,5.855-36.405,5.305-43.558-10.96c-0.013-0.03-0.028-0.062-0.043-0.093  c-2.647-5.154-3.349-11.84-2.061-19.414h69.093C85.111,63.645,84.96,65.525,84.754,67.438z M67.652,69.189  c-3.047,0.58-6.152,1.231-9.123,1.855c-4.088,0.857-7.946,1.669-11.184,2.199c-4.883,0.915-7.544,1.074-8.953,1.038  c0.068-0.05,0.14-0.101,0.216-0.154c0.031-0.021,0.063-0.045,0.092-0.067c5.188-4.154,18.431-6.479,28.339-4.97  C67.241,69.121,67.445,69.154,67.652,69.189z M86.73,82.199c-0.211-1.746,0.343-5.938,0.763-9.116  c0.036-0.278,0.073-0.56,0.11-0.845c1.004,0.938,1.433,2.105,1.608,2.795C89.833,77.445,89.156,80.699,86.73,82.199z"/>
</svg>