<?xml version="1.0" encoding="utf-8"?>
<!-- Generator: Adobe Illustrator 16.0.0, SVG Export Plug-In . SVG Version: 6.00 Build 0)  -->
<!DOCTYPE svg PUBLIC "-//W3C//DTD SVG 1.1//EN" "http://www.w3.org/Graphics/SVG/1.1/DTD/svg11.dtd">
<svg version="1.1" id="Layer_1" xmlns="http://www.w3.org/2000/svg" xmlns:xlink="http://www.w3.org/1999/xlink" x="0px" y="0px"
	 width="50px" height="50px" viewBox="0 0 50 50" enable-background="new 0 0 50 50" xml:space="preserve">
<g id="Captions">
</g>
<g id="Your_Icon">
	<g>
		<path fill="#E9E9E9" d="M25,0.25C11.331,0.25,0.25,11.331,0.25,25S11.331,49.75,25,49.75S49.75,38.669,49.75,25
			S38.669,0.25,25,0.25z M12.129,31.985c0.06,0.271,0.05,0.687,0.21,1.134c0.073,0.225,0.152,0.467,0.237,0.724
			c0.058,0.267,0.245,0.499,0.376,0.762c0.152,0.253,0.269,0.54,0.493,0.762l0.605,0.714l0.718,0.607
			c0.221,0.223,0.509,0.338,0.761,0.491c0.263,0.131,0.495,0.315,0.764,0.376c0.258,0.083,0.501,0.163,0.728,0.237
			c0.449,0.159,0.855,0.148,1.127,0.208c0.277,0.039,0.436,0.062,0.436,0.062s-0.159-0.009-0.438-0.026
			c-0.274-0.042-0.692,0.023-1.154-0.131c-0.234-0.07-0.484-0.142-0.75-0.221c-0.277-0.053-0.517-0.233-0.792-0.363
			c-0.263-0.148-0.563-0.26-0.799-0.482l-0.754-0.605l-0.605-0.755c-0.223-0.232-0.335-0.532-0.484-0.796
			c-0.127-0.276-0.31-0.515-0.365-0.792c-0.078-0.269-0.154-0.521-0.221-0.755c-0.154-0.462-0.086-0.873-0.131-1.148
			c-0.017-0.279-0.025-0.439-0.025-0.439S12.09,31.709,12.129,31.985z M8.208,29.882c0.124,0.54,0.098,1.373,0.43,2.265
			c0.15,0.446,0.315,0.93,0.488,1.441c0.12,0.532,0.503,0.99,0.758,1.518c0.302,0.504,0.53,1.082,0.973,1.526
			c0.397,0.474,0.803,0.953,1.206,1.435c0.482,0.402,0.963,0.807,1.438,1.203c0.443,0.443,1.021,0.67,1.528,0.972
			c0.529,0.257,0.985,0.634,1.518,0.758c0.515,0.173,1.001,0.337,1.451,0.488c0.894,0.329,1.71,0.302,2.254,0.427
			c0.555,0.078,0.871,0.125,0.871,0.125s-0.318-0.018-0.876-0.05c-0.281-0.017-0.622-0.035-1.012-0.058
			c-0.394-0.018-0.841-0.028-1.298-0.197c-0.466-0.133-0.972-0.275-1.505-0.427c-0.557-0.103-1.042-0.458-1.589-0.721
			c-0.526-0.302-1.127-0.53-1.594-0.978c-0.497-0.402-1-0.812-1.505-1.222c-0.41-0.505-0.82-1.009-1.223-1.505
			c-0.447-0.467-0.678-1.065-0.98-1.59c-0.262-0.548-0.617-1.031-0.723-1.592c-0.152-0.536-0.297-1.046-0.429-1.514
			c-0.17-0.461-0.179-0.9-0.196-1.291c-0.021-0.389-0.041-0.728-0.056-1.008c-0.035-0.557-0.052-0.878-0.052-0.878
			S8.128,29.326,8.208,29.882z M21.831,45.788c-0.424,0.017-0.937-0.007-1.521-0.08c-0.588-0.054-1.258-0.107-1.963-0.296
			c-0.357-0.082-0.728-0.164-1.112-0.251c-0.375-0.122-0.761-0.25-1.159-0.382c-0.813-0.225-1.597-0.646-2.433-1.025
			c-0.783-0.479-1.632-0.912-2.389-1.514c-0.804-0.539-1.512-1.223-2.248-1.871c-0.649-0.736-1.334-1.445-1.873-2.246
			c-0.602-0.756-1.039-1.605-1.518-2.387c-0.379-0.836-0.799-1.621-1.025-2.432c-0.288-0.79-0.5-1.553-0.634-2.271
			c-0.189-0.702-0.244-1.378-0.297-1.967c-0.076-0.591-0.099-1.098-0.081-1.519C3.593,26.705,3.6,26.225,3.6,26.225
			s0.056,0.477,0.153,1.312c0.026,0.421,0.104,0.926,0.239,1.49c0.116,0.566,0.236,1.202,0.458,1.881
			c0.175,0.691,0.427,1.415,0.754,2.158c0.265,0.77,0.737,1.491,1.101,2.293c0.479,0.741,0.91,1.548,1.505,2.259
			c0.53,0.759,1.203,1.419,1.834,2.11c0.694,0.631,1.354,1.303,2.113,1.832c0.712,0.596,1.518,1.025,2.258,1.504
			c0.802,0.362,1.526,0.832,2.295,1.098c0.376,0.151,0.742,0.3,1.097,0.443c0.365,0.107,0.72,0.211,1.062,0.312
			c0.677,0.221,1.318,0.341,1.887,0.457c0.567,0.135,1.067,0.212,1.486,0.239c0.834,0.097,1.312,0.154,1.312,0.154
			S22.673,45.773,21.831,45.788z M25,34.771c-5.396,0-9.771-4.374-9.771-9.771c0-5.396,4.375-9.771,9.771-9.771
			s9.771,4.375,9.771,9.771S30.396,34.771,25,34.771z M37.181,17.284c-0.059-0.271-0.045-0.686-0.198-1.135
			c-0.07-0.227-0.148-0.47-0.229-0.728c-0.055-0.267-0.24-0.5-0.367-0.765c-0.15-0.254-0.264-0.543-0.485-0.766l-0.6-0.722
			l-0.709-0.614c-0.219-0.226-0.507-0.345-0.758-0.499c-0.261-0.137-0.489-0.323-0.759-0.386c-0.258-0.087-0.5-0.17-0.727-0.246
			c-0.447-0.163-0.854-0.157-1.125-0.219c-0.275-0.042-0.435-0.066-0.435-0.066s0.159,0.01,0.438,0.03
			c0.273,0.048,0.692-0.014,1.152,0.143c0.23,0.071,0.482,0.148,0.748,0.229c0.274,0.056,0.514,0.24,0.785,0.37
			c0.264,0.151,0.562,0.269,0.793,0.491l0.75,0.615l0.597,0.761c0.221,0.235,0.329,0.537,0.476,0.803
			c0.125,0.275,0.303,0.516,0.355,0.794c0.075,0.269,0.147,0.521,0.213,0.756c0.148,0.463,0.076,0.873,0.119,1.15
			c0.012,0.28,0.02,0.439,0.02,0.439S37.216,17.562,37.181,17.284z M41.078,19.429c-0.119-0.542-0.084-1.375-0.406-2.271
			c-0.146-0.449-0.304-0.932-0.472-1.448c-0.115-0.531-0.493-0.993-0.742-1.522C39.164,13.679,38.94,13.1,38.5,12.65
			c-0.392-0.477-0.791-0.962-1.188-1.446c-0.478-0.411-0.956-0.816-1.426-1.219c-0.438-0.447-1.014-0.68-1.516-0.988
			c-0.528-0.26-0.979-0.643-1.513-0.772c-0.512-0.179-0.996-0.348-1.443-0.503c-0.893-0.337-1.707-0.322-2.252-0.451
			c-0.552-0.084-0.869-0.134-0.869-0.134s0.319,0.021,0.877,0.06c0.281,0.019,0.621,0.041,1.011,0.067
			c0.395,0.023,0.842,0.035,1.298,0.21c0.465,0.137,0.968,0.285,1.501,0.443c0.555,0.109,1.037,0.468,1.579,0.736
			c0.523,0.308,1.122,0.542,1.584,0.995c0.49,0.408,0.99,0.824,1.49,1.238c0.404,0.508,0.811,1.018,1.207,1.518
			c0.445,0.47,0.668,1.072,0.965,1.601c0.258,0.55,0.607,1.036,0.707,1.597c0.146,0.539,0.283,1.047,0.412,1.518
			c0.166,0.462,0.171,0.905,0.182,1.292c0.018,0.391,0.033,0.729,0.049,1.009c0.026,0.558,0.041,0.877,0.041,0.877
			S41.152,19.983,41.078,19.429z M45.646,23.134c0,0-0.051-0.479-0.139-1.314c-0.022-0.42-0.095-0.925-0.223-1.491
			c-0.11-0.569-0.224-1.206-0.438-1.886c-0.166-0.692-0.412-1.419-0.732-2.168c-0.256-0.771-0.721-1.499-1.075-2.304
			c-0.47-0.746-0.892-1.555-1.48-2.272c-0.524-0.765-1.188-1.433-1.813-2.131c-0.687-0.636-1.338-1.316-2.094-1.854
			c-0.705-0.603-1.508-1.041-2.242-1.528c-0.797-0.371-1.518-0.848-2.281-1.123c-0.376-0.155-0.739-0.308-1.094-0.455
			c-0.365-0.111-0.719-0.219-1.058-0.321c-0.677-0.229-1.314-0.355-1.882-0.478c-0.566-0.141-1.066-0.223-1.484-0.254
			c-0.834-0.106-1.311-0.167-1.311-0.167s0.481-0.004,1.324-0.008c0.424-0.014,0.936,0.014,1.521,0.095
			c0.587,0.06,1.257,0.12,1.96,0.318c0.355,0.083,0.725,0.172,1.107,0.262c0.375,0.127,0.761,0.258,1.156,0.394
			c0.81,0.233,1.591,0.662,2.423,1.05c0.775,0.487,1.622,0.929,2.37,1.541c0.799,0.547,1.5,1.236,2.229,1.895
			c0.641,0.743,1.318,1.457,1.848,2.265c0.596,0.76,1.021,1.617,1.492,2.403c0.369,0.838,0.781,1.629,1,2.443
			c0.279,0.792,0.482,1.555,0.611,2.276c0.182,0.707,0.227,1.381,0.274,1.97c0.069,0.591,0.087,1.099,0.066,1.521
			C45.659,22.653,45.646,23.134,45.646,23.134z"/>
		<circle fill-opacity="0.6" cx="25" cy="25" r="1.302"/>
	</g>
</g>
</svg>
