<svg xmlns="http://www.w3.org/2000/svg" xmlns:xlink="http://www.w3.org/1999/xlink" version="1.1" id="Layer_1" x="0px" y="0px" width="40px" height="40px" viewBox="0 0 100 100" enable-background="new 0 0 100 100" xml:space="preserve">
<g>
	<path fill="#8F8D88" d="M65,18c-3.86,0-7,3.14-7,7v13.68C57.09,38.24,56.07,38,55,38c-1.96,0-3.73,0.81-5,2.11c-1.27-1.3-3.04-2.11-5-2.11   c-1.07,0-2.09,0.24-3,0.68V25c0-3.86-3.14-7-7-7s-7,3.14-7,7v35c0,12.13,9.87,22,22,22c12.06,0,21.89-9.76,21.99-21.8   C72,60.13,72,60.07,72,60V25C72,21.14,68.86,18,65,18z M62,25c0-1.65,1.35-3,3-3s3,1.35,3,3v25.78c-1.87-1.51-4.09-2.29-6-2.61V25z    M52,45c0-1.65,1.35-3,3-3s3,1.35,3,3v3h-6V45z M42,45c0-1.65,1.35-3,3-3s3,1.35,3,3v3h-6V45z M50,78c-9.93,0-18-8.08-18-18V25   c0-1.65,1.35-3,3-3s3,1.35,3,3v25c0,1.64,0.39,3.85,1.44,5.92C41.06,59.11,44.25,62,50,62h0.73C49.12,63.83,48,66.42,48,70   c0,1.1,0.9,2,2,2c1.1,0,2-0.9,2-2c0-7.71,7.19-7.99,8-8c1.1,0,2-0.9,2-2s-0.9-2-2-2H50c-2.66,0-4.43-0.85-5.61-2   c-1.26-1.22-1.85-2.77-2.14-4h17.74c0.24,0,1.02,0.03,2.01,0.26c2.07,0.471,5.06,1.84,5.82,5.74c0.12,0.6,0.18,1.27,0.18,2   c0,0.68-0.04,1.34-0.11,2C66.89,70.98,59.24,78,50,78z"/>
</g>
</svg>