<svg xmlns="http://www.w3.org/2000/svg" xmlns:xlink="http://www.w3.org/1999/xlink" version="1.1" id="Layer_1" x="0px" y="0px" width="24px" height="24px" viewBox="0 0 100 100" enable-background="new 0 0 100 100" xml:space="preserve">
<g>
	<path fill="#222628" fill-rule="evenodd" clip-rule="evenodd" d="M52.048,11.831c12.006-7.138,24.363-9.555,34.214-5.047   c12.536,5.728,14.865,19.952,13.314,32.979c-1.057,8.883-5.369,17.156-10.528,24.33C79.339,77.598,64.045,90.05,51.52,95.202   c-0.184,0.082-0.535,0.216-0.742,0.298c-0.253-0.109-0.69-0.266-0.954-0.379C37.343,89.94,22.159,77.525,12.501,64.092   C7.334,56.918,1.371,45.443,0.318,36.559C-1.231,23.532,2.745,12.511,15.275,6.783c9.853-4.507,22.209-2.09,34.215,5.047   l1.287,0.732L52.048,11.831z"/>
</g>
</svg>