<svg xmlns="http://www.w3.org/2000/svg" xmlns:xlink="http://www.w3.org/1999/xlink" version="1.1" id="Layer_1" x="0px" y="0px" width="32px" height="32px" viewBox="0 0 100 100" enable-background="new 0 0 100 100" xml:space="preserve">
<path fill="#222628" d="M96.626,44.249L52.407,18.522c-1.207-0.48-1.891-0.762-2.974-0.762c-3.48,0-6.305,2.822-6.305,6.304v14.154L9.276,18.522  c-1.205-0.48-1.891-0.762-2.974-0.762C2.822,17.761,0,20.583,0,24.064v51.871c0,3.482,2.822,6.304,6.303,6.304  c1.083,0,1.769-0.28,2.974-0.761l33.853-19.697v14.154c0,3.482,2.824,6.304,6.305,6.304c1.083,0,1.767-0.28,2.974-0.761  l44.219-25.728c2.056-1.219,3.007-3.178,3.374-5.435v-0.633C99.633,47.427,98.682,45.468,96.626,44.249z"/>
</svg>