<?xml version="1.0" encoding="utf-8"?>
<!-- Generator: Adobe Illustrator 16.0.0, SVG Export Plug-In . SVG Version: 6.00 Build 0)  -->
<!DOCTYPE svg PUBLIC "-//W3C//DTD SVG 1.1//EN" "http://www.w3.org/Graphics/SVG/1.1/DTD/svg11.dtd">
<svg version="1.1" xmlns="http://www.w3.org/2000/svg" xmlns:xlink="http://www.w3.org/1999/xlink" x="0px" y="0px" width="200px"
	 height="200px" viewBox="0 0 200 200" enable-background="new 0 0 200 200" xml:space="preserve">
<g id="Layer_2">
	<rect y="1" fill="#C1C9C4" width="199" height="200.462"/>
</g>
<g id="Layer_1">
	<g id="Captions">
	</g>
	<g id="Your_Icon">
		<g>
			<path fill="#222628" d="M100,1C45.324,1,1,45.324,1,100s44.324,99,99,99s99-44.324,99-99S154.676,1,100,1z M48.516,127.941
				c0.24,1.082,0.198,2.744,0.84,4.533c0.29,0.901,0.608,1.871,0.948,2.897c0.234,1.067,0.982,1.996,1.504,3.046
				c0.608,1.01,1.076,2.162,1.972,3.046l2.422,2.856l2.872,2.43c0.884,0.891,2.036,1.35,3.044,1.964
				c1.052,0.524,1.978,1.265,3.054,1.504c1.032,0.332,2.006,0.652,2.912,0.95c1.794,0.637,3.42,0.594,4.508,0.834
				c1.108,0.154,1.744,0.244,1.744,0.244s-0.636-0.036-1.752-0.105c-1.096-0.168-2.77,0.094-4.616-0.524
				c-0.934-0.278-1.936-0.566-2.998-0.882c-1.108-0.213-2.068-0.935-3.166-1.45c-1.052-0.597-2.254-1.04-3.194-1.931l-3.018-2.424
				l-2.422-3.02c-0.89-0.93-1.342-2.13-1.938-3.186c-0.508-1.103-1.238-2.057-1.458-3.166c-0.312-1.076-0.616-2.084-0.886-3.019
				c-0.614-1.849-0.346-3.492-0.522-4.595c-0.068-1.117-0.102-1.758-0.102-1.758S48.36,126.836,48.516,127.941z M32.834,119.527
				c0.496,2.162,0.39,5.492,1.718,9.061c0.602,1.784,1.26,3.717,1.952,5.766c0.48,2.127,2.014,3.957,3.034,6.066
				c1.208,2.02,2.12,4.332,3.892,6.107c1.59,1.893,3.21,3.812,4.822,5.736c1.93,1.612,3.852,3.23,5.752,4.814
				c1.774,1.775,4.084,2.678,6.112,3.886c2.114,1.026,3.938,2.538,6.072,3.032c2.058,0.693,4.006,1.346,5.802,1.954
				c3.576,1.313,6.84,1.208,9.018,1.704c2.218,0.315,3.484,0.502,3.484,0.502s-1.272-0.07-3.506-0.198
				c-1.124-0.065-2.486-0.142-4.048-0.233c-1.576-0.07-3.366-0.11-5.194-0.787c-1.866-0.533-3.886-1.104-6.022-1.707
				c-2.226-0.41-4.168-1.83-6.354-2.883c-2.106-1.207-4.51-2.123-6.376-3.908c-1.986-1.609-4-3.254-6.02-4.89
				c-1.64-2.016-3.28-4.032-4.89-6.016c-1.788-1.868-2.712-4.265-3.922-6.364c-1.046-2.189-2.468-4.122-2.892-6.368
				c-0.608-2.142-1.188-4.18-1.716-6.05c-0.678-1.844-0.714-3.602-0.784-5.166c-0.086-1.552-0.164-2.91-0.226-4.029
				c-0.14-2.23-0.208-3.513-0.208-3.513S32.514,117.305,32.834,119.527z M87.324,183.152c-1.696,0.065-3.746-0.028-6.084-0.32
				c-2.352-0.214-5.032-0.43-7.852-1.186c-1.428-0.326-2.912-0.656-4.446-1.002c-1.5-0.488-3.044-1-4.636-1.528
				c-3.252-0.898-6.388-2.587-9.732-4.103c-3.13-1.914-6.53-3.644-9.554-6.054c-3.216-2.156-6.05-4.888-8.99-7.481
				c-2.596-2.949-5.336-5.78-7.492-8.988c-2.41-3.022-4.156-6.42-6.072-9.542c-1.514-3.345-3.196-6.488-4.1-9.73
				c-1.152-3.159-1.998-6.208-2.536-9.082c-0.756-2.81-0.976-5.512-1.188-7.866c-0.304-2.361-0.396-4.392-0.324-6.076
				c0.054-3.375,0.082-5.297,0.082-5.297s0.224,1.908,0.614,5.254c0.106,1.682,0.416,3.703,0.956,5.957
				c0.466,2.267,0.946,4.811,1.83,7.524c0.7,2.765,1.71,5.66,3.018,8.634c1.06,3.076,2.948,5.965,4.402,9.174
				c1.916,2.963,3.64,6.188,6.022,9.033c2.122,3.033,4.812,5.678,7.336,8.441c2.778,2.523,5.416,5.21,8.454,7.33
				c2.848,2.38,6.072,4.1,9.032,6.014c3.208,1.45,6.106,3.33,9.18,4.389c1.504,0.607,2.966,1.201,4.388,1.775
				c1.462,0.432,2.882,0.846,4.248,1.246c2.708,0.882,5.272,1.364,7.548,1.828c2.27,0.54,4.27,0.848,5.944,0.958
				c3.336,0.386,5.246,0.616,5.246,0.616S90.694,183.096,87.324,183.152z M100,139.082c-21.584,0-39.084-17.498-39.084-39.082
				S78.414,60.916,100,60.916c21.584,0,39.082,17.498,39.082,39.084C139.082,121.584,121.584,139.082,100,139.082z M148.723,69.136
				c-0.234-1.084-0.181-2.742-0.793-4.538c-0.283-0.906-0.594-1.88-0.914-2.912c-0.218-1.068-0.964-1.998-1.472-3.06
				c-0.599-1.018-1.05-2.174-1.938-3.064l-2.397-2.886l-2.836-2.458c-0.876-0.904-2.03-1.378-3.032-1.994
				c-1.046-0.546-1.958-1.292-3.035-1.542c-1.033-0.348-2-0.68-2.904-0.982c-1.789-0.654-3.414-0.63-4.502-0.878
				c-1.103-0.166-1.738-0.266-1.738-0.266s0.636,0.042,1.754,0.122c1.096,0.192,2.77-0.056,4.609,0.572
				c0.922,0.284,1.931,0.594,2.99,0.918c1.1,0.224,2.055,0.96,3.143,1.478c1.054,0.606,2.248,1.074,3.174,1.964l2.998,2.458
				l2.386,3.044c0.884,0.938,1.32,2.148,1.902,3.21c0.5,1.102,1.212,2.062,1.422,3.178c0.302,1.076,0.59,2.084,0.853,3.024
				c0.594,1.852,0.307,3.492,0.476,4.602c0.05,1.12,0.081,1.756,0.081,1.756S148.863,70.248,148.723,69.136z M164.312,77.716
				c-0.475-2.17-0.336-5.5-1.623-9.084c-0.586-1.794-1.217-3.728-1.89-5.79c-0.46-2.126-1.972-3.972-2.968-6.09
				c-1.178-2.038-2.07-4.354-3.83-6.152c-1.568-1.908-3.168-3.848-4.756-5.786c-1.91-1.642-3.824-3.266-5.704-4.876
				c-1.754-1.788-4.054-2.722-6.062-3.952c-2.11-1.04-3.916-2.572-6.049-3.088c-2.048-0.714-3.986-1.392-5.777-2.014
				c-3.57-1.348-6.824-1.286-9.004-1.802c-2.209-0.338-3.477-0.536-3.477-0.536s1.276,0.084,3.506,0.24
				c1.127,0.074,2.482,0.164,4.043,0.266c1.577,0.092,3.367,0.142,5.191,0.842c1.859,0.55,3.872,1.142,6.004,1.772
				c2.219,0.436,4.148,1.874,6.318,2.946c2.092,1.23,4.486,2.17,6.334,3.98c1.959,1.632,3.959,3.294,5.959,4.95
				c1.621,2.034,3.246,4.072,4.832,6.072c1.779,1.88,2.673,4.286,3.856,6.404c1.034,2.2,2.433,4.142,2.828,6.388
				c0.582,2.154,1.132,4.188,1.652,6.072c0.663,1.848,0.68,3.62,0.726,5.17c0.07,1.562,0.133,2.918,0.192,4.038
				c0.106,2.232,0.163,3.508,0.163,3.508S164.609,79.934,164.312,77.716z M182.588,92.536c0,0-0.206-1.914-0.556-5.258
				c-0.091-1.682-0.38-3.702-0.89-5.964c-0.442-2.276-0.896-4.822-1.754-7.544c-0.664-2.77-1.646-5.676-2.927-8.674
				c-1.024-3.082-2.882-5.994-4.302-9.216c-1.876-2.982-3.568-6.218-5.922-9.088c-2.096-3.058-4.756-5.73-7.252-8.522
				c-2.748-2.544-5.353-5.264-8.377-7.414c-2.819-2.41-6.029-4.162-8.967-6.114c-3.188-1.484-6.072-3.392-9.127-4.49
				c-1.504-0.622-2.957-1.23-4.375-1.818c-1.463-0.444-2.877-0.876-4.23-1.284c-2.704-0.914-5.258-1.42-7.528-1.91
				c-2.266-0.564-4.262-0.89-5.938-1.016c-3.332-0.426-5.237-0.67-5.237-0.67s1.922-0.016,5.292-0.032
				c1.699-0.056,3.746,0.056,6.084,0.38c2.348,0.24,5.025,0.48,7.84,1.272c1.422,0.334,2.896,0.688,4.43,1.046
				c1.5,0.508,3.043,1.032,4.625,1.576c3.237,0.932,6.363,2.65,9.691,4.2c3.102,1.95,6.486,3.716,9.482,6.164
				c3.195,2.188,6,4.946,8.914,7.58c2.56,2.97,5.27,5.826,7.392,9.06c2.38,3.042,4.082,6.468,5.968,9.612
				c1.477,3.354,3.122,6.516,4,9.774c1.118,3.166,1.93,6.218,2.442,9.104c0.726,2.828,0.909,5.522,1.098,7.878
				c0.28,2.364,0.349,4.396,0.267,6.082C182.637,90.614,182.588,92.536,182.588,92.536z"/>
			<circle fill="#222628" cx="100" cy="100" r="5.208"/>
		</g>
	</g>
</g>
</svg>
