<svg xmlns="http://www.w3.org/2000/svg" xmlns:xlink="http://www.w3.org/1999/xlink" version="1.1" x="0px" y="0px" width="40px" height="40px" viewBox="0 0 100 100" enable-background="new 0 0 100 100" xml:space="preserve">
<g id="Captions">
</g>
<g id="Your_Icon">
	<g>
		<path fill="#C1C9C4" fill-opacity="0.8" d="M50,0.5C22.662,0.5,0.5,22.662,0.5,50S22.662,99.5,50,99.5S99.5,77.338,99.5,50S77.338,0.5,50,0.5z M24.258,63.971    c0.12,0.541,0.099,1.372,0.42,2.266c0.145,0.451,0.304,0.936,0.474,1.449c0.117,0.534,0.491,0.998,0.752,1.523    c0.304,0.505,0.538,1.081,0.986,1.523l1.211,1.428l1.436,1.215c0.442,0.445,1.018,0.675,1.522,0.982    c0.526,0.262,0.989,0.632,1.527,0.752c0.516,0.166,1.003,0.326,1.456,0.475c0.897,0.318,1.71,0.297,2.254,0.417    c0.554,0.077,0.872,0.122,0.872,0.122s-0.318-0.018-0.876-0.053c-0.548-0.084-1.385,0.047-2.308-0.262    c-0.467-0.139-0.968-0.283-1.499-0.441c-0.554-0.106-1.034-0.467-1.583-0.725c-0.526-0.298-1.127-0.52-1.597-0.965l-1.509-1.212    l-1.211-1.51c-0.445-0.465-0.671-1.065-0.969-1.593c-0.254-0.551-0.619-1.028-0.729-1.583c-0.156-0.538-0.308-1.042-0.443-1.509    c-0.307-0.924-0.173-1.746-0.261-2.297c-0.034-0.559-0.051-0.879-0.051-0.879S24.18,63.418,24.258,63.971z M16.417,59.764    c0.248,1.081,0.195,2.746,0.859,4.53c0.301,0.892,0.63,1.858,0.976,2.883c0.24,1.063,1.007,1.978,1.517,3.033    c0.604,1.01,1.06,2.166,1.946,3.054c0.795,0.946,1.605,1.906,2.411,2.868c0.965,0.806,1.926,1.615,2.876,2.407    c0.887,0.888,2.042,1.339,3.056,1.943c1.057,0.513,1.969,1.269,3.036,1.516c1.029,0.347,2.003,0.673,2.901,0.977    c1.788,0.657,3.42,0.604,4.509,0.852c1.109,0.158,1.742,0.251,1.742,0.251s-0.636-0.035-1.753-0.099    c-0.562-0.033-1.243-0.071-2.024-0.117c-0.788-0.035-1.683-0.055-2.597-0.393c-0.933-0.267-1.943-0.552-3.011-0.854    c-1.113-0.205-2.084-0.915-3.177-1.441c-1.053-0.604-2.255-1.062-3.188-1.954c-0.993-0.805-2-1.627-3.01-2.445    c-0.82-1.008-1.64-2.016-2.445-3.008c-0.894-0.934-1.356-2.132-1.961-3.182c-0.523-1.095-1.234-2.061-1.446-3.184    c-0.304-1.071-0.594-2.09-0.858-3.025c-0.339-0.922-0.357-1.801-0.392-2.583c-0.043-0.776-0.082-1.455-0.113-2.015    c-0.07-1.115-0.104-1.756-0.104-1.756S16.257,58.652,16.417,59.764z M43.662,91.576c-0.848,0.033-1.873-0.014-3.042-0.16    c-1.176-0.107-2.516-0.215-3.926-0.593c-0.714-0.163-1.456-0.328-2.223-0.501c-0.75-0.244-1.522-0.5-2.318-0.764    c-1.626-0.449-3.194-1.293-4.866-2.051c-1.565-0.957-3.265-1.822-4.777-3.027c-1.608-1.078-3.025-2.444-4.495-3.741    c-1.298-1.474-2.668-2.89-3.746-4.494c-1.205-1.511-2.078-3.21-3.036-4.771c-0.757-1.672-1.598-3.244-2.05-4.865    c-0.576-1.58-0.999-3.104-1.268-4.541c-0.378-1.405-0.488-2.756-0.594-3.933c-0.152-1.181-0.198-2.196-0.162-3.038    C7.186,53.409,7.2,52.448,7.2,52.448s0.112,0.954,0.307,2.627c0.053,0.841,0.208,1.852,0.478,2.979    c0.233,1.133,0.473,2.405,0.915,3.762c0.35,1.382,0.855,2.83,1.509,4.317c0.53,1.538,1.474,2.982,2.201,4.587    c0.958,1.481,1.82,3.094,3.011,4.516c1.061,1.517,2.406,2.839,3.668,4.221c1.389,1.262,2.708,2.605,4.227,3.665    c1.424,1.19,3.036,2.05,4.516,3.007c1.604,0.725,3.053,1.665,4.59,2.194c0.752,0.304,1.483,0.601,2.194,0.888    c0.731,0.216,1.441,0.423,2.124,0.623c1.354,0.441,2.636,0.682,3.774,0.914c1.135,0.27,2.135,0.424,2.972,0.479    c1.668,0.193,2.623,0.308,2.623,0.308S45.347,91.548,43.662,91.576z M50,69.541c-10.792,0-19.542-8.749-19.542-19.541    c0-10.792,8.749-19.542,19.542-19.542c10.792,0,19.541,8.749,19.541,19.542C69.541,60.792,60.792,69.541,50,69.541z     M74.361,34.568c-0.117-0.542-0.09-1.371-0.396-2.269c-0.142-0.453-0.297-0.94-0.457-1.456c-0.109-0.534-0.482-0.999-0.736-1.53    c-0.299-0.509-0.525-1.087-0.969-1.532l-1.199-1.443l-1.418-1.229c-0.438-0.452-1.015-0.689-1.516-0.997    c-0.523-0.273-0.979-0.646-1.518-0.771c-0.516-0.174-1-0.34-1.452-0.491c-0.894-0.327-1.707-0.315-2.251-0.439    c-0.551-0.083-0.869-0.133-0.869-0.133s0.318,0.021,0.877,0.061c0.548,0.096,1.385-0.028,2.305,0.286    c0.461,0.142,0.965,0.297,1.495,0.459c0.55,0.112,1.027,0.48,1.571,0.739c0.527,0.303,1.124,0.537,1.587,0.982l1.499,1.229    l1.193,1.522c0.442,0.469,0.66,1.074,0.951,1.605c0.25,0.551,0.606,1.031,0.711,1.589c0.151,0.538,0.295,1.042,0.426,1.512    c0.297,0.926,0.154,1.746,0.238,2.301c0.025,0.56,0.041,0.878,0.041,0.878S74.432,35.124,74.361,34.568z M82.156,38.858    c-0.237-1.085-0.168-2.75-0.811-4.542c-0.293-0.897-0.609-1.864-0.945-2.895c-0.23-1.063-0.986-1.986-1.484-3.045    c-0.589-1.019-1.035-2.177-1.915-3.076c-0.784-0.954-1.584-1.924-2.378-2.893c-0.955-0.821-1.912-1.633-2.852-2.438    c-0.877-0.894-2.027-1.361-3.031-1.976c-1.055-0.52-1.958-1.286-3.024-1.544c-1.024-0.357-1.993-0.696-2.889-1.007    c-1.785-0.674-3.412-0.643-4.502-0.901c-1.104-0.169-1.738-0.268-1.738-0.268s0.638,0.042,1.753,0.12    c0.563,0.037,1.241,0.082,2.021,0.133c0.789,0.046,1.684,0.071,2.596,0.421c0.93,0.275,1.936,0.571,3.002,0.886    c1.109,0.218,2.074,0.937,3.159,1.473c1.046,0.615,2.243,1.085,3.167,1.99c0.98,0.816,1.98,1.647,2.98,2.475    c0.81,1.017,1.623,2.036,2.416,3.036c0.889,0.94,1.336,2.143,1.928,3.202c0.517,1.1,1.216,2.071,1.414,3.194    c0.291,1.077,0.566,2.094,0.826,3.036c0.332,0.924,0.34,1.81,0.363,2.585c0.035,0.781,0.066,1.459,0.096,2.019    c0.053,1.116,0.082,1.754,0.082,1.754S82.305,39.967,82.156,38.858z M91.294,46.268c0,0-0.103-0.957-0.278-2.629    c-0.045-0.841-0.19-1.851-0.445-2.982c-0.221-1.138-0.448-2.411-0.877-3.772c-0.332-1.385-0.823-2.838-1.463-4.337    c-0.512-1.541-1.441-2.997-2.151-4.608c-0.938-1.491-1.784-3.109-2.961-4.544c-1.048-1.529-2.378-2.865-3.626-4.261    c-1.374-1.272-2.676-2.632-4.188-3.707c-1.41-1.205-3.015-2.081-4.484-3.057c-1.594-0.742-3.036-1.696-4.563-2.245    c-0.752-0.311-1.479-0.615-2.188-0.909c-0.731-0.222-1.438-0.438-2.115-0.642c-1.352-0.457-2.629-0.71-3.764-0.955    c-1.133-0.282-2.131-0.445-2.969-0.508c-1.666-0.213-2.619-0.335-2.619-0.335s0.961-0.008,2.646-0.016    c0.85-0.028,1.873,0.028,3.042,0.19c1.174,0.12,2.513,0.24,3.92,0.636c0.711,0.167,1.448,0.344,2.215,0.523    c0.75,0.254,1.521,0.516,2.312,0.788c1.619,0.466,3.182,1.325,4.846,2.1c1.551,0.975,3.243,1.858,4.741,3.082    c1.598,1.094,3,2.473,4.457,3.79c1.28,1.485,2.635,2.913,3.696,4.53c1.19,1.521,2.041,3.234,2.984,4.806    c0.738,1.677,1.561,3.258,2,4.887c0.559,1.583,0.965,3.109,1.221,4.552c0.363,1.414,0.455,2.761,0.549,3.939    c0.14,1.182,0.174,2.198,0.133,3.041C91.318,45.307,91.294,46.268,91.294,46.268z"/>
		<circle cx="50" cy="50" r="2.604"/>
	</g>
</g>
</svg>